{"title":"Goreyan Nu Daffa Karo (2014) DVDRip - XviD - 2CD Esub [DDR-Exclu","uid":11470012,"size":1469086459,"categoryP":"video","categoryS":"movies","magnet":"?xt=urn:btih:cf931fbe6a77e69699b47e3dd38f9732f50a2eb4&amp;dn=Goreyan+Nu+Daffa+Karo+%282014%29+DVDRip+-+XviD+-+2CD+Esub+%5BDDR-Exclu&amp;tr=udp%3A%2F%2Ftracker.openbittorrent.com%3A80&amp;tr=udp%3A%2F%2Fopen.demonii.com%3A1337&amp;tr=udp%3A%2F%2Ftracker.coppersurfer.tk%3A6969&amp;tr=udp%3A%2F%2Fexodus.desync.com%3A6969","seeders":4,"leechers":4,"uploader":"SaM","files":-1,"time":1416072309,"description":"Goreyan Nu Daffa Karo (2014) DVDRip - XviD - 2CD Esub [DDR-ExclusivE]\n &lt;a href=&quot;\nhttp://i.imgur.com/hELJNpw.jpg&quot; rel=&quot;nofollow&quot; target=&quot;_NEW&quot;&gt;\nhttp://i.imgur.com/hELJNpw.jpg&lt;/a&gt;\n\n---------------------------------------------------------------------------------------------------------------------------------------\nMovie Info\n---------------------------------------------------------------------------------------------------------------------------------------\n\nMovie Name : Goreyan Nu Daffa Karo\nStarring : Amrinder Gill, Amrit Maghera, Yograj Singh, Aman Khatkar, Binnu Dhillon , Rana Ranbir, Karamjit Anmol\nDirected : Pankaj Batra\nProducer : Suresh Kumar, Monty Shoor, Sukhjinder Bhachoo &amp; Aman Khatkar\nIMDB : http://www.imdb.com/title/tt3971944/\nMovie Release Date : 12 September 2014\nRipper : AnMoL\nSource : DVD9 My Own Collection\nAudio : Punjabi\nSubtitle : English\n\n---------------------------------------------------------------------------------------------------------------------------------------\nTech Info\n---------------------------------------------------------------------------------------------------------------------------------------\n\nFormat : AVI\nFormat/Info : Audio Video Interleave\nFile size : 1.37 GiB\nDuration : 2h 14mn\nOverall bit rate : 1 459 Kbps\n\nVideo\nID : 0\nFormat : MPEG-4 Visual\nFormat profile : Advanced Simple@L5\nFormat settings, BVOP : 3\nFormat settings, QPel : No\nCodec ID/Hint : XviD\nDuration : 2h 14mn\nBit rate : 1 002 Kbps\nWidth : 704 pixels\nHeight : 320 pixels\nDisplay aspect ratio : 2.2:1\nFrame rate : 23.976 fps\nColor space : YUV\nChroma subsampling : 4:2:0\nBit depth : 8 bits\nScan type : Progressive\nCompression mode : Lossy\nBits/(Pixel*Frame) : 0.185\nStream size : 962 MiB (69%)\n\nAudio\nID : 1\nFormat : AC-3\nFormat/Info : Audio Coding 3\nMode extension : CM (complete main)\nFormat settings, Endianness : Big\nCodec ID : 2000\nDuration : 2h 14mn\nBit rate mode : Constant\nBit rate : 448 Kbps\nChannel(s) : 6 channels\nChannel positions : Front: L C R, Side: L R, LFE\nSampling rate : 48.0 KHz\nBit depth : 16 bits\nCompression mode : Lossy\nStream size : 430 MiB (31%)\n\n---------------------------------------------------------------------------------------------------------------------------------------\nScreen Shot\n---------------------------------------------------------------------------------------------------------------------------------------\n &lt;a href=&quot;\nhttp://i.imgur.com/tOFsckh.png&quot; rel=&quot;nofollow&quot; target=&quot;_NEW&quot;&gt;\nhttp://i.imgur.com/tOFsckh.png&lt;/a&gt; &lt;a href=&quot;\nhttp://i.imgur.com/QZYasr9.png&quot; rel=&quot;nofollow&quot; target=&quot;_NEW&quot;&gt;\nhttp://i.imgur.com/QZYasr9.png&lt;/a&gt; &lt;a href=&quot;\nhttp://i.imgur.com/bNlhM7O.png&quot; rel=&quot;nofollow&quot; target=&quot;_NEW&quot;&gt;\nhttp://i.imgur.com/bNlhM7O.png&lt;/a&gt; &lt;a href=&quot;\nhttp://i.imgur.com/t6BGWvg.png&quot; rel=&quot;nofollow&quot; target=&quot;_NEW&quot;&gt;\nhttp://i.imgur.com/t6BGWvg.png&lt;/a&gt; &lt;a href=&quot;\nhttp://i.imgur.com/22yn1xR.png&quot; rel=&quot;nofollow&quot; target=&quot;_NEW&quot;&gt;\nhttp://i.imgur.com/22yn1xR.png&lt;/a&gt; &lt;a href=&quot;\nhttp://i.imgur.com/Ma0Va5G.png&quot; rel=&quot;nofollow&quot; target=&quot;_NEW&quot;&gt;\nhttp://i.imgur.com/Ma0Va5G.png&lt;/a&gt; &lt;a href=&quot;\nhttp://i.imgur.com/8lt7gHV.png&quot; rel=&quot;nofollow&quot; target=&quot;_NEW&quot;&gt;\nhttp://i.imgur.com/8lt7gHV.png&lt;/a&gt; &lt;a href=&quot;\nhttp://i.imgur.com/wVSqiXf.png&quot; rel=&quot;nofollow&quot; target=&quot;_NEW&quot;&gt;\nhttp://i.imgur.com/wVSqiXf.png&lt;/a&gt; &lt;a href=&quot;\nhttp://i.imgur.com/rjzX6vd.png&quot; rel=&quot;nofollow&quot; target=&quot;_NEW&quot;&gt;\nhttp://i.imgur.com/rjzX6vd.png&lt;/a&gt; &lt;a href=&quot;\nhttp://i.imgur.com/3B48IQQ.png&quot; rel=&quot;nofollow&quot; target=&quot;_NEW&quot;&gt;\nhttp://i.imgur.com/3B48IQQ.png&lt;/a&gt; &lt;a href=&quot;\nhttp://i.imgur.com/USGkODL.png&quot; rel=&quot;nofollow&quot; target=&quot;_NEW&quot;&gt;\nhttp://i.imgur.com/USGkODL.png&lt;/a&gt;","torrent":{"xt":"urn:btih:cf931fbe6a77e69699b47e3dd38f9732f50a2eb4","amp;dn":"Goreyan+Nu+Daffa+Karo+%282014%29+DVDRip+-+XviD+-+2CD+Esub+%5BDDR-Exclu","amp;tr":["udp%3A%2F%2Ftracker.openbittorrent.com%3A80","udp%3A%2F%2Fopen.demonii.com%3A1337","udp%3A%2F%2Ftracker.coppersurfer.tk%3A6969","udp%3A%2F%2Fexodus.desync.com%3A6969"],"infoHash":"cf931fbe6a77e69699b47e3dd38f9732f50a2eb4","infoHashBuffer":{"type":"Buffer","data":[207,147,31,190,106,119,230,150,153,180,126,61,211,143,151,50,245,10,46,180]},"announce":[],"urlList":[]}}